<svg xmlns="http://www.w3.org/2000/svg" xmlns:xlink="http://www.w3.org/1999/xlink" width="500" zoomAndPan="magnify" viewBox="0 0 375 374.999991" height="500" preserveAspectRatio="xMidYMid meet" version="1.0"><defs><clipPath id="d9542feb4e"><path d="M 3.75 3.75 L 371.25 3.75 L 371.25 371.25 L 3.75 371.25 Z M 3.75 3.75 " clip-rule="nonzero"/></clipPath></defs><g clip-path="url(#d9542feb4e)"><path fill="#000000" d="M 187.5 3.75 C 86.019531 3.75 3.75 86.019531 3.75 187.5 C 3.75 288.980469 86.019531 371.25 187.5 371.25 C 288.980469 371.25 371.25 288.980469 371.25 187.5 C 371.25 86.019531 288.980469 3.75 187.5 3.75 Z M 187.5 357.332031 C 93.703125 357.332031 17.667969 281.296875 17.667969 187.5 C 17.667969 93.703125 93.703125 17.667969 187.5 17.667969 C 281.296875 17.667969 357.332031 93.703125 357.332031 187.5 C 357.332031 281.296875 281.296875 357.332031 187.5 357.332031 Z M 187.5 357.332031 " fill-opacity="1" fill-rule="nonzero"/></g><path fill="#000000" d="M 165.933594 277.570312 C 161.324219 278.011719 157.644531 278.519531 153.945312 278.691406 C 132.980469 279.683594 117.457031 271.417969 108.046875 252.144531 C 105.046875 246.007812 101.210938 240.214844 97.214844 234.652344 C 94.8125 231.3125 91.449219 228.628906 88.34375 225.847656 L 88.304688 225.816406 C 86.386719 224.125 87.234375 220.960938 89.757812 220.539062 C 92.71875 220.039062 95.480469 220.574219 98.171875 221.261719 C 106.601562 223.40625 112.011719 229.382812 116.324219 236.53125 C 126.074219 252.695312 142.863281 259.4375 161.019531 254.621094 C 164.105469 253.804688 165.460938 252.476562 166.132812 249.117188 C 166.917969 245.195312 167.980469 241.328125 169.125 237.390625 C 169.292969 236.808594 169.398438 236.21875 169.449219 235.617188 C 169.496094 235.015625 169.484375 234.414062 169.410156 233.8125 C 169.335938 233.214844 169.199219 232.628906 169.007812 232.054688 C 168.8125 231.484375 168.566406 230.9375 168.261719 230.414062 C 167.957031 229.890625 167.601562 229.40625 167.199219 228.957031 C 166.796875 228.507812 166.351562 228.101562 165.863281 227.742188 C 165.378906 227.382812 164.863281 227.078125 164.3125 226.820312 C 163.765625 226.566406 163.199219 226.371094 162.609375 226.230469 L 162.507812 226.207031 C 143.667969 221.699219 127.394531 213.308594 116.910156 196.09375 C 111.300781 186.886719 108.527344 176.746094 108.667969 166.179688 C 108.832031 154.195312 109.890625 142.179688 111.269531 130.261719 C 112.238281 121.871094 116.125 114.4375 122.160156 108.402344 C 124.261719 106.300781 124.441406 104.535156 123.425781 101.8125 C 119.273438 90.660156 119.992188 79.484375 123.679688 68.308594 C 124.722656 65.15625 126.199219 64.707031 129.214844 65.65625 C 138.550781 68.59375 145.515625 74.667969 151.636719 81.941406 L 151.699219 82.015625 C 152.464844 82.941406 153.355469 83.730469 154.359375 84.390625 C 155.367188 85.046875 156.445312 85.542969 157.601562 85.875 C 158.757812 86.210938 159.933594 86.367188 161.136719 86.347656 C 162.335938 86.328125 163.511719 86.132812 164.652344 85.761719 C 184.023438 79.410156 213.414062 79.324219 231.683594 85.613281 C 232.832031 86 234.011719 86.210938 235.222656 86.246094 C 236.433594 86.277344 237.625 86.128906 238.792969 85.800781 C 239.957031 85.472656 241.050781 84.980469 242.070312 84.320312 C 243.085938 83.660156 243.984375 82.867188 244.757812 81.933594 L 244.820312 81.863281 C 250.949219 74.589844 257.945312 68.566406 267.273438 65.617188 C 270.402344 64.628906 271.734375 65.382812 272.726562 68.425781 C 276.367188 79.605469 276.984375 90.714844 273.050781 101.984375 C 272.496094 103.570312 272.515625 106.328125 273.503906 107.328125 C 281.867188 115.8125 285.53125 126.34375 286.457031 137.757812 C 287.355469 148.78125 288.328125 159.996094 287.304688 170.941406 C 284.640625 199.414062 267.332031 215.996094 241.007812 224.238281 C 238.753906 224.945312 236.464844 225.535156 234.128906 226.089844 C 233.519531 226.230469 232.933594 226.4375 232.371094 226.703125 C 231.804688 226.96875 231.277344 227.292969 230.777344 227.671875 C 230.28125 228.046875 229.828125 228.472656 229.421875 228.945312 C 229.015625 229.417969 228.660156 229.929688 228.359375 230.476562 C 228.058594 231.023438 227.820312 231.597656 227.640625 232.195312 C 227.457031 232.792969 227.34375 233.402344 227.289062 234.023438 C 227.238281 234.644531 227.25 235.265625 227.328125 235.886719 C 227.40625 236.503906 227.546875 237.109375 227.753906 237.699219 C 231.339844 248.089844 230.792969 259.191406 230.734375 270.222656 C 230.722656 272.757812 230.714844 275.292969 230.710938 277.832031 C 230.707031 278.878906 230.652344 279.925781 230.546875 280.964844 C 230.445312 282.007812 230.289062 283.042969 230.082031 284.070312 C 229.875 285.097656 229.621094 286.113281 229.3125 287.113281 C 229.007812 288.117188 228.652344 289.101562 228.25 290.066406 C 227.847656 291.035156 227.398438 291.980469 226.90625 292.902344 C 226.410156 293.824219 225.871094 294.722656 225.289062 295.59375 C 224.703125 296.460938 224.082031 297.300781 223.414062 298.109375 C 222.75 298.917969 222.046875 299.695312 221.304688 300.433594 C 220.5625 301.171875 219.785156 301.875 218.976562 302.539062 C 218.167969 303.203125 217.324219 303.824219 216.453125 304.40625 C 215.582031 304.988281 214.683594 305.523438 213.761719 306.019531 C 212.835938 306.511719 211.890625 306.957031 210.921875 307.359375 C 209.953125 307.757812 208.96875 308.109375 207.964844 308.414062 C 206.964844 308.71875 205.949219 308.972656 204.921875 309.175781 C 203.894531 309.378906 202.859375 309.53125 201.816406 309.636719 C 200.773438 309.738281 199.730469 309.789062 198.683594 309.789062 L 197.960938 309.789062 C 196.910156 309.789062 195.863281 309.738281 194.820312 309.632812 C 193.777344 309.53125 192.742188 309.378906 191.710938 309.171875 C 190.683594 308.96875 189.667969 308.714844 188.664062 308.410156 C 187.660156 308.105469 186.671875 307.753906 185.703125 307.351562 C 184.734375 306.949219 183.789062 306.5 182.863281 306.007812 C 181.9375 305.511719 181.039062 304.972656 180.167969 304.390625 C 179.292969 303.808594 178.453125 303.183594 177.640625 302.519531 C 176.832031 301.851562 176.054688 301.148438 175.3125 300.40625 C 174.570312 299.667969 173.867188 298.890625 173.203125 298.078125 C 172.539062 297.269531 171.914062 296.425781 171.332031 295.554688 C 170.746094 294.683594 170.210938 293.785156 169.714844 292.859375 C 169.21875 291.933594 168.773438 290.984375 168.371094 290.015625 C 167.96875 289.046875 167.617188 288.0625 167.3125 287.058594 C 167.007812 286.054688 166.753906 285.039062 166.546875 284.007812 C 166.34375 282.980469 166.191406 281.945312 166.085938 280.898438 C 165.984375 279.855469 165.933594 278.808594 165.933594 277.761719 Z M 165.933594 277.570312 " fill-opacity="1" fill-rule="nonzero"/></svg>