<svg xmlns="http://www.w3.org/2000/svg" xmlns:xlink="http://www.w3.org/1999/xlink" width="500" zoomAndPan="magnify" viewBox="0 0 375 374.999991" height="500" preserveAspectRatio="xMidYMid meet" version="1.0"><defs><clipPath id="bca8c6cfbb"><path d="M 3.742188 3.742188 L 371.242188 3.742188 L 371.242188 371.242188 L 3.742188 371.242188 Z M 3.742188 3.742188 " clip-rule="nonzero"/></clipPath></defs><g clip-path="url(#bca8c6cfbb)"><path fill="#2197bd" d="M 371.242188 315.363281 C 371.242188 346.203125 346.238281 371.203125 315.394531 371.203125 L 59.597656 371.203125 C 28.753906 371.203125 3.753906 346.203125 3.753906 315.363281 L 3.753906 59.558594 C 3.753906 28.71875 28.753906 3.71875 59.597656 3.71875 L 315.398438 3.71875 C 346.238281 3.71875 371.242188 28.71875 371.242188 59.558594 Z M 371.242188 315.363281 " fill-opacity="1" fill-rule="nonzero"/></g><path fill="#ffffff" d="M 149.066406 134.828125 C 149.066406 135.726562 149.023438 136.621094 148.933594 137.519531 C 148.847656 138.414062 148.714844 139.300781 148.539062 140.183594 C 148.363281 141.066406 148.144531 141.9375 147.882812 142.796875 C 147.625 143.65625 147.320312 144.5 146.976562 145.332031 C 146.632812 146.164062 146.25 146.976562 145.824219 147.769531 C 145.402344 148.5625 144.9375 149.332031 144.441406 150.078125 C 143.941406 150.828125 143.40625 151.546875 142.835938 152.242188 C 142.265625 152.9375 141.660156 153.601562 141.027344 154.238281 C 140.390625 154.875 139.722656 155.476562 139.03125 156.046875 C 138.335938 156.617188 137.613281 157.152344 136.867188 157.652344 C 136.117188 158.152344 135.347656 158.613281 134.554688 159.039062 C 133.761719 159.460938 132.949219 159.84375 132.121094 160.191406 C 131.289062 160.535156 130.441406 160.835938 129.582031 161.097656 C 128.722656 161.359375 127.851562 161.578125 126.96875 161.75 C 126.085938 161.925781 125.199219 162.058594 124.304688 162.148438 C 123.410156 162.234375 122.511719 162.28125 121.613281 162.28125 C 120.714844 162.28125 119.816406 162.234375 118.921875 162.148438 C 118.027344 162.058594 117.140625 161.925781 116.257812 161.75 C 115.375 161.578125 114.503906 161.359375 113.644531 161.097656 C 112.785156 160.835938 111.9375 160.535156 111.109375 160.191406 C 110.277344 159.84375 109.464844 159.460938 108.671875 159.039062 C 107.878906 158.613281 107.109375 158.152344 106.363281 157.652344 C 105.613281 157.152344 104.894531 156.617188 104.199219 156.046875 C 103.503906 155.476562 102.835938 154.875 102.203125 154.238281 C 101.566406 153.601562 100.964844 152.9375 100.394531 152.242188 C 99.824219 151.546875 99.289062 150.828125 98.789062 150.078125 C 98.289062 149.332031 97.828125 148.5625 97.402344 147.769531 C 96.980469 146.976562 96.59375 146.164062 96.25 145.332031 C 95.90625 144.5 95.605469 143.65625 95.34375 142.796875 C 95.082031 141.9375 94.863281 141.066406 94.6875 140.183594 C 94.511719 139.300781 94.382812 138.414062 94.292969 137.519531 C 94.207031 136.621094 94.160156 135.726562 94.160156 134.828125 C 94.160156 133.929688 94.207031 133.03125 94.292969 132.136719 C 94.382812 131.242188 94.511719 130.351562 94.6875 129.472656 C 94.863281 128.589844 95.082031 127.71875 95.34375 126.859375 C 95.605469 125.996094 95.90625 125.152344 96.25 124.320312 C 96.59375 123.492188 96.980469 122.679688 97.402344 121.886719 C 97.828125 121.09375 98.289062 120.324219 98.789062 119.574219 C 99.289062 118.828125 99.824219 118.105469 100.394531 117.410156 C 100.964844 116.714844 101.566406 116.050781 102.203125 115.414062 C 102.835938 114.78125 103.503906 114.175781 104.199219 113.605469 C 104.894531 113.035156 105.613281 112.5 106.363281 112 C 107.109375 111.5 107.878906 111.039062 108.671875 110.617188 C 109.464844 110.191406 110.277344 109.808594 111.109375 109.464844 C 111.9375 109.121094 112.785156 108.816406 113.644531 108.558594 C 114.503906 108.296875 115.375 108.078125 116.257812 107.902344 C 117.140625 107.726562 118.027344 107.59375 118.921875 107.507812 C 119.816406 107.417969 120.714844 107.375 121.613281 107.375 C 122.511719 107.375 123.410156 107.417969 124.304688 107.507812 C 125.199219 107.59375 126.085938 107.726562 126.96875 107.902344 C 127.851562 108.078125 128.722656 108.296875 129.582031 108.558594 C 130.441406 108.816406 131.289062 109.121094 132.121094 109.464844 C 132.949219 109.808594 133.761719 110.191406 134.554688 110.617188 C 135.347656 111.039062 136.117188 111.5 136.867188 112 C 137.613281 112.5 138.335938 113.035156 139.03125 113.605469 C 139.722656 114.175781 140.390625 114.78125 141.027344 115.414062 C 141.660156 116.050781 142.265625 116.714844 142.835938 117.410156 C 143.40625 118.105469 143.941406 118.828125 144.441406 119.574219 C 144.9375 120.324219 145.402344 121.09375 145.824219 121.886719 C 146.25 122.679688 146.632812 123.492188 146.976562 124.320312 C 147.320312 125.152344 147.625 125.996094 147.882812 126.859375 C 148.144531 127.71875 148.363281 128.589844 148.539062 129.472656 C 148.714844 130.351562 148.847656 131.242188 148.933594 132.136719 C 149.023438 133.03125 149.066406 133.929688 149.066406 134.828125 Z M 149.066406 134.828125 " fill-opacity="1" fill-rule="nonzero"/><path fill="#ffffff" d="M 97.949219 182.519531 L 145.109375 182.519531 L 145.109375 334.238281 L 97.949219 334.238281 Z M 97.949219 182.519531 " fill-opacity="1" fill-rule="nonzero"/><path fill="#ffffff" d="M 174.773438 182.519531 L 219.660156 182.519531 L 219.660156 334.238281 L 174.773438 334.238281 Z M 174.773438 182.519531 " fill-opacity="1" fill-rule="nonzero"/><path fill="#ffffff" d="M 176.714844 263.296875 L 221.601562 263.296875 L 221.601562 334.238281 L 176.714844 334.238281 Z M 176.714844 263.296875 " fill-opacity="1" fill-rule="nonzero"/><path fill="#ffffff" d="M 221.601562 263.296875 C 221.601562 263.296875 220.898438 243.621094 226.089844 233.386719 C 226.089844 233.386719 231.277344 220.789062 247.59375 220.710938 C 247.59375 220.710938 266.726562 217.371094 272.210938 236.355469 C 272.210938 236.355469 274.289062 246.882812 274.289062 251.335938 C 274.289062 255.785156 274.4375 334.238281 274.4375 334.238281 L 321.449219 334.238281 L 321.449219 247.332031 C 321.449219 247.332031 324.863281 198.238281 295.394531 184.792969 C 295.394531 184.792969 246.949219 163.039062 220.652344 202.984375 C 220.652344 202.984375 214.917969 206.9375 214.125 195.867188 C 213.332031 184.792969 206.609375 212.871094 206.410156 213.464844 C 206.214844 214.058594 214.125 269.429688 214.125 269.429688 Z M 221.601562 263.296875 " fill-opacity="1" fill-rule="nonzero"/></svg>